<svg xmlns="http://www.w3.org/2000/svg" viewBox="0 0 1280 640" role="img" aria-labelledby="title desc">
  <title id="title">VibeWiki social preview</title>
  <desc id="desc">A social preview for VibeWiki, the reviewed memory layer for AI coding agents.</desc>
  <rect width="1280" height="640" fill="#F2F6F1"/>
  <rect x="64" y="64" width="1152" height="512" rx="36" fill="#FFFFFF" stroke="#D8E1DA" stroke-width="3"/>
  <g transform="translate(110 126) scale(.55)">
    <rect width="512" height="512" rx="96" fill="#F7FAF6"/>
    <path d="M96 120c0-22 18-40 40-40h240c22 0 40 18 40 40v272c0 22-18 40-40 40H136c-22 0-40-18-40-40V120Z" fill="#FFFFFF" stroke="#D8E1DA" stroke-width="10"/>
    <path d="M160 148h192" stroke="#2A9D8F" stroke-width="20" stroke-linecap="round"/>
    <path d="M160 206h112" stroke="#E9C46A" stroke-width="20" stroke-linecap="round"/>
    <path d="M160 264h150" stroke="#E76F51" stroke-width="20" stroke-linecap="round"/>
    <path d="M138 150l88 214c6 15 28 15 34 0l88-214" fill="none" stroke="#17202A" stroke-width="44" stroke-linecap="round" stroke-linejoin="round"/>
    <circle cx="256" cy="302" r="40" fill="#2A9D8F"/>
    <path d="M239 302l12 12 25-28" fill="none" stroke="#FFFFFF" stroke-width="12" stroke-linecap="round" stroke-linejoin="round"/>
    <path d="M356 320l38 38" stroke="#457B9D" stroke-width="24" stroke-linecap="round"/>
  </g>
  <text x="440" y="218" fill="#17202A" font-family="Inter, ui-sans-serif, system-ui, -apple-system, BlinkMacSystemFont, Segoe UI, sans-serif" font-size="86" font-weight="850">VibeWiki</text>
  <text x="445" y="286" fill="#5F6E85" font-family="Inter, ui-sans-serif, system-ui, -apple-system, BlinkMacSystemFont, Segoe UI, sans-serif" font-size="34" font-weight="650">Reviewed memory for AI coding agents.</text>
  <text x="446" y="352" fill="#17202A" font-family="Inter, ui-sans-serif, system-ui, -apple-system, BlinkMacSystemFont, Segoe UI, sans-serif" font-size="30" font-weight="700">AI sessions → reviewed team knowledge</text>
  <g transform="translate(446 408)">
    <rect width="146" height="44" rx="22" fill="#EAF5F2"/>
    <text x="73" y="29" text-anchor="middle" fill="#2A9D8F" font-family="Inter, ui-sans-serif, system-ui, -apple-system, BlinkMacSystemFont, Segoe UI, sans-serif" font-size="20" font-weight="800">local-first</text>
    <rect x="162" width="150" height="44" rx="22" fill="#FFF6DA"/>
    <text x="237" y="29" text-anchor="middle" fill="#98752A" font-family="Inter, ui-sans-serif, system-ui, -apple-system, BlinkMacSystemFont, Segoe UI, sans-serif" font-size="20" font-weight="800">review-first</text>
    <rect x="328" width="174" height="44" rx="22" fill="#FDEDE8"/>
    <text x="415" y="29" text-anchor="middle" fill="#C35338" font-family="Inter, ui-sans-serif, system-ui, -apple-system, BlinkMacSystemFont, Segoe UI, sans-serif" font-size="20" font-weight="800">agent-ready</text>
  </g>
</svg>
