<svg xmlns="http://www.w3.org/2000/svg" viewBox="0 0 1280 640" role="img" aria-labelledby="title desc">
  <title id="title">VibeWiki social preview</title>
  <desc id="desc">VibeWiki turns AI conversations into reviewed personal and project memory.</desc>
  <rect width="1280" height="640" fill="#F2F6F1"/>
  <rect x="72" y="72" width="1136" height="496" rx="38" fill="#FFFFFF" stroke="#D8E1DA" stroke-width="3"/>
  <g transform="translate(152 166) scale(.56)">
    <rect width="512" height="512" rx="96" fill="#17232D"/>
    <path d="M96 126C153 118 207 132 240 158L256 390C211 352 158 333 96 338V126Z" fill="#F5F8F5"/>
    <path d="M416 126C359 118 305 132 272 158L256 390C301 352 354 333 416 338V126Z" fill="#2AA397"/>
    <path d="M224 420H288" fill="none" stroke="#F0B84B" stroke-width="10" stroke-linecap="round"/>
  </g>
  <text x="494" y="234" fill="#17202A" font-family="Inter, ui-sans-serif, system-ui, -apple-system, BlinkMacSystemFont, Segoe UI, sans-serif" font-size="84" font-weight="850">VibeWiki</text>
  <text x="500" y="302" fill="#5F6E85" font-family="Inter, ui-sans-serif, system-ui, -apple-system, BlinkMacSystemFont, Segoe UI, sans-serif" font-size="34" font-weight="650">Stop paying the AI amnesia tax.</text>
  <text x="500" y="368" fill="#17202A" font-family="Inter, ui-sans-serif, system-ui, -apple-system, BlinkMacSystemFont, Segoe UI, sans-serif" font-size="30" font-weight="700">Conversations → reviewed project memory</text>
  <g transform="translate(500 420)">
    <rect width="146" height="44" rx="22" fill="#EAF5F2"/>
    <text x="73" y="29" text-anchor="middle" fill="#2A9D8F" font-family="Inter, ui-sans-serif, system-ui, -apple-system, BlinkMacSystemFont, Segoe UI, sans-serif" font-size="20" font-weight="800">local-first</text>
    <rect x="162" width="150" height="44" rx="22" fill="#FFF6DA"/>
    <text x="237" y="29" text-anchor="middle" fill="#98752A" font-family="Inter, ui-sans-serif, system-ui, -apple-system, BlinkMacSystemFont, Segoe UI, sans-serif" font-size="20" font-weight="800">review-first</text>
    <rect x="328" width="174" height="44" rx="22" fill="#FDEDE8"/>
    <text x="415" y="29" text-anchor="middle" fill="#C35338" font-family="Inter, ui-sans-serif, system-ui, -apple-system, BlinkMacSystemFont, Segoe UI, sans-serif" font-size="20" font-weight="800">agent-ready</text>
  </g>
</svg>
